<svg xmlns="http://www.w3.org/2000/svg" width="133" height="37" viewBox="0 0 133 37" fill="none"><g clip-path="url(#clip0_2463_1163)"><mask id="mask0_2463_1163" style="mask-type:luminance" maskUnits="userSpaceOnUse" x="0" y="0" width="133" height="37"><path d="M133 0H0V37H133V0Z" fill="white"></path></mask><g mask="url(#mask0_2463_1163)"><mask id="mask1_2463_1163" style="mask-type:luminance" maskUnits="userSpaceOnUse" x="0" y="0" width="133" height="37"><path d="M133 0H0V36.4833H133V0Z" fill="white"></path></mask><g mask="url(#mask1_2463_1163)"><path fill-rule="evenodd" clip-rule="evenodd" d="M78.4008 4.44492V1.43359C75.8328 2.04425 75.5476 2.18876 75.1602 5.54737C75.5668 5.22806 76.1551 4.98099 76.7626 4.78988C77.2933 4.62206 77.8489 4.51485 78.4008 4.44492Z" fill="#FAA51A"></path><path fill-rule="evenodd" clip-rule="evenodd" d="M104.466 15.4836C100.711 15.8798 96.5906 15.4743 96.8937 10.7452H102.922C104.409 10.7452 105.064 10.1299 105.064 9.32114C105.062 8.34918 104.223 7.57308 103.398 7.19549C102.485 6.77592 101.475 6.60578 100.3 6.60578C97.0363 6.60578 94.0182 8.00189 94.0412 11.4584C94.0886 17.3459 101.281 16.8984 104.466 16.1246V15.4836ZM101.281 9.97138H96.9244C97.1348 8.37483 98.7679 7.42859 100.324 7.42623C101.368 7.42623 102.585 7.81077 102.594 8.85264C102.599 9.43998 102.106 9.97138 101.281 9.97138ZM9.3962 2.04216C8.47108 1.87202 7.44077 1.75781 6.4152 1.75781C3.20293 1.75781 0 2.91386 0 6.96475V15.6234C0 15.9964 0.306043 16.3017 0.679835 16.3017H2.59319V8.40513C2.59319 7.78519 3.22162 7.75489 3.68886 7.75489H6.22131V6.89247H2.59319C2.66093 3.05371 5.25412 2.05149 9.3962 2.79733V2.03984V2.04216ZM12.3118 9.97604V16.3017H10.3984C10.0246 16.3017 9.71859 15.9964 9.71859 15.6234V10.1625C9.71859 6.5522 14.3536 6.35872 16.4118 6.75034V7.50546C14.5849 7.15121 12.3095 7.5008 12.3095 9.97604H12.3118ZM90.3857 7.07894C89.8319 6.88086 88.8344 6.60814 86.9628 6.60814C83.774 6.60814 82.1946 7.63132 82.1946 9.31412C82.1946 12.6051 88.9578 11.9689 88.9578 13.9477C88.9578 14.6539 88.2545 15.6818 86.3042 15.6818C84.5682 15.6818 83.5004 15.4673 82.1946 15.0105V15.9521C83.1173 16.2854 84.4889 16.5744 86.3413 16.5744C89.0633 16.5744 91.7476 15.6351 91.7476 13.6563C91.7476 10.0623 84.9838 10.7801 84.9838 8.86195C84.9838 7.99258 86.0261 7.43324 87.2902 7.43324C88.5537 7.43324 89.612 7.57072 90.3876 7.83878V7.0813L90.3857 7.07894ZM63.2363 9.81528C63.2363 8.35384 64.7128 7.48447 66.1426 7.43088C67.5723 7.3773 69.0046 8.14179 69.0046 9.9458V15.6258C69.0046 15.9987 69.3103 16.3041 69.6843 16.3041H71.5956V9.8059C71.5956 8.41444 71.0533 6.60814 67.3268 6.60814C65.4207 6.60814 64.0472 7.0626 63.2363 7.56606V1.75781H61.3253C60.9515 1.75781 60.6455 2.06314 60.6455 2.43606V15.6234C60.6455 15.9964 60.9515 16.3017 61.3253 16.3017H63.2363V9.81292V9.81528ZM57.0548 7.75954C53.8752 7.27242 50.1186 7.79214 50.1186 11.5889C50.1186 15.3858 53.9009 15.9288 57.0548 15.4184V16.3087C56.0432 16.4649 55.2839 16.5768 54.1299 16.5721C51.032 16.5534 47.3338 15.5186 47.3338 11.5913C47.3338 7.66398 51.032 6.62913 54.1299 6.61044C55.2816 6.60349 56.0432 6.71768 57.0548 6.87384V7.7642V7.75954ZM29.6207 13.7309C29.6207 16.3273 26.6047 16.5675 23.8386 16.5721C21.7103 16.5721 18.5845 16.4392 18.5121 13.4745C18.4396 10.4306 22.6051 9.97138 25.5464 9.97138C26.0954 9.97138 26.6 9.98541 27.0275 10.0017V9.83154C27.0439 7.89472 25.6211 7.41921 23.8153 7.36562C22.3622 7.32365 21.1567 7.65933 20.0003 7.99258L19.9862 7.09756C21.9112 6.49861 29.6184 5.75505 29.6184 9.53554V13.7333L29.6207 13.7309ZM27.0275 10.6799C24.2031 10.4958 21.0258 10.927 21.1052 13.5025C21.152 15.0757 22.6869 15.775 23.9414 15.775C25.9108 15.775 27.0275 15.1666 27.0275 13.8171V10.6799ZM76.2723 16.3017H78.1855V6.89247H76.2723C75.8982 6.89247 75.5926 7.19778 75.5926 7.57072V15.6234C75.5926 15.9964 75.8982 16.3017 76.2723 16.3017ZM38.7296 7.31204C36.6901 7.31204 35.7112 8.2653 35.7112 9.99702V16.3041H33.7979C33.4241 16.3041 33.118 15.9987 33.118 15.6258V10.1835C33.118 7.21647 35.9028 6.60814 38.7272 6.60814C41.5517 6.60814 44.229 7.21647 44.229 10.1835V16.3041H42.3156C41.9419 16.3041 41.6358 15.9987 41.6358 15.6258V9.99702C41.6358 7.98792 40.7667 7.31204 38.7272 7.31204H38.7296ZM104.606 31.969C100.852 32.3652 96.7326 31.9597 97.0363 27.2306H103.064C104.552 27.2306 105.206 26.6153 105.204 25.8066C105.204 24.8346 104.363 24.0585 103.538 23.6809C102.622 23.2613 101.613 23.0912 100.441 23.0912C97.177 23.0912 94.1583 24.4873 94.1819 27.9438C94.226 33.8313 101.421 33.3838 104.603 32.61V31.969H104.606ZM101.424 26.4545H97.067C97.2748 24.8579 98.9079 23.9116 100.466 23.9116C101.51 23.9116 102.728 24.2962 102.737 25.3381C102.741 25.9254 102.249 26.4568 101.424 26.4568V26.4545ZM88.2244 26.4615V32.7871H86.3113C85.9372 32.7871 85.6309 32.4818 85.6309 32.1089V26.6456C85.6309 23.0376 90.2661 22.8418 92.327 23.2334V23.9886C90.4976 23.6343 88.2244 23.9839 88.2244 26.4592V26.4615ZM56.7627 23.562C56.2091 23.3639 55.2091 23.0912 53.3379 23.0912C50.1489 23.0912 48.572 24.1167 48.572 25.7972C48.572 29.0882 55.3353 28.4519 55.3353 30.4284C55.3353 31.137 54.6321 32.1625 52.6814 32.1625C50.9456 32.1625 49.8802 31.948 48.5744 31.4912V32.4352C49.4948 32.7685 50.8662 33.0575 52.7188 33.0575C55.4404 33.0575 58.1247 32.1182 58.1247 30.1394C58.1247 26.5454 51.3614 27.2633 51.3614 25.3451C51.3614 24.478 52.4033 23.9163 53.6672 23.9163C54.9311 23.9163 55.9871 24.0538 56.765 24.3218V23.5644L56.7627 23.562ZM82.5872 28.086C82.5917 25.6573 81.6665 23.308 77.5876 23.1052C77.2583 23.0889 76.922 23.0889 76.5946 23.1029C72.5157 23.287 71.5789 25.6341 71.5719 28.0627C71.5674 30.4913 72.4927 32.8408 76.5716 33.0459C76.9009 33.0622 77.2372 33.0622 77.5646 33.0482C81.6435 32.8617 82.5802 30.517 82.5872 28.0884V28.086ZM73.9896 28.0674C73.9947 26.2587 74.4525 23.8907 77.0901 23.8977C79.7278 23.9023 80.176 26.2727 80.1715 28.0813C80.169 29.8923 79.7066 32.2581 77.0716 32.2534C74.434 32.2464 73.9876 29.8783 73.9896 28.0674ZM69.6306 31.9597V32.7218C65.8459 33.4421 60.7903 33.3908 60.7903 28.0557V18.9215C60.7903 18.5463 61.101 18.2456 61.4772 18.2456H63.3835V23.3802H68.6561V24.2426H64.4724C64.0306 24.2426 63.3812 24.2659 63.3812 24.8043V27.8599C63.3718 32.0926 66.0185 32.6333 69.6281 31.9621L69.6306 31.9597Z" fill="white"></path><path fill-rule="evenodd" clip-rule="evenodd" d="M132.998 18.7929V0C115.412 3.91333 115.984 5.99003 113.414 25.2887C118.92 20.9628 126.203 19.6436 132.998 18.7929Z" fill="#FAA51A"></path><path fill-rule="evenodd" clip-rule="evenodd" d="M124.17 21.6658C119.432 22.1343 115.19 24.7726 113.054 25.9101C113.01 23.1225 113.33 18.7756 113.454 17.4121C107.919 19.4236 108.77 31.0377 108.066 36.4824C111.241 32.7695 118.458 30.4597 124.275 29.5181L124.17 29.2803V21.6681V21.6658Z" fill="#FAA51A"></path><path fill-rule="evenodd" clip-rule="evenodd" d="M124.275 29.5162V21.5566C119.217 22.0718 114.755 24.6682 113.055 25.9105C114.538 26.0224 116.652 26.3744 118.327 26.8218C120.572 27.4185 122.584 28.3858 124.273 29.5185" fill="#8D3A25"></path></g></g></g><defs><clipPath id="clip0_2463_1163"><rect width="133" height="37" fill="white"></rect></clipPath></defs></svg>